<?xml version="1.0" standalone="no"?>
<!DOCTYPE svg PUBLIC "-//W3C//DTD SVG 20010904//EN"
 "http://www.w3.org/TR/2001/REC-SVG-20010904/DTD/svg10.dtd">
<svg version="1.0" xmlns="http://www.w3.org/2000/svg"
 width="270.000000pt" height="270.000000pt" viewBox="0 0 270.000000 270.000000"
 preserveAspectRatio="xMidYMid meet">
<metadata>
Created by potrace 1.11, written by Peter Selinger 2001-2013
</metadata>
<g transform="translate(0.000000,270.000000) scale(0.100000,-0.100000)"
fill="#000000" stroke="none">
<path d="M1038 2687 c-9 -6 -7 -7 6 -3 13 4 17 2 13 -8 -3 -7 0 -19 6 -25 9
-9 8 -10 -7 -5 -15 6 -17 4 -11 -7 5 -8 8 -27 7 -44 -2 -24 -1 -27 9 -15 9 13
10 12 5 -3 -3 -10 -6 -21 -6 -23 0 -3 -3 -3 -7 -1 -5 3 -8 -5 -8 -18 0 -16 4
-21 15 -17 13 5 13 3 2 -11 -8 -9 -12 -22 -9 -29 2 -7 0 -22 -6 -33 -9 -17 -8
-18 5 -8 12 11 14 9 12 -10 -1 -12 -3 -26 -3 -30 -1 -5 -7 -5 -13 -2 -7 4 -4
-1 6 -9 19 -15 19 -16 2 -16 -15 0 -16 -3 -6 -15 6 -8 9 -19 5 -25 -3 -5 -1
-10 4 -10 6 0 11 8 12 18 0 14 2 14 9 -3 5 -11 9 -15 9 -9 1 6 13 10 28 8 15
-1 33 2 39 7 8 7 15 6 20 -2 5 -8 3 -9 -6 -4 -9 5 -11 4 -6 -3 5 -8 13 -9 25
-2 12 6 22 5 31 -3 10 -10 12 -9 7 5 -4 12 -2 15 8 11 8 -3 13 -8 11 -12 -2
-3 7 -6 20 -6 15 0 22 5 20 12 -3 7 1 10 9 6 8 -3 12 -10 8 -17 -4 -7 -1 -7 9
1 8 7 17 10 20 8 9 -10 49 -14 43 -5 -3 5 -1 11 5 15 5 3 10 -1 10 -10 0 -9 5
-13 11 -9 6 4 26 7 43 8 17 1 37 5 45 10 10 6 12 6 7 -2 -5 -8 1 -12 14 -12
14 0 19 4 14 13 -5 8 -2 7 9 -2 10 -8 20 -11 24 -8 3 4 15 2 26 -4 15 -9 18
-8 12 2 -6 9 -3 10 8 6 10 -4 24 -10 32 -13 10 -4 15 0 15 11 0 9 5 13 10 10
6 -4 8 -10 6 -14 -3 -3 4 -7 14 -7 10 0 17 3 14 7 -5 8 27 22 34 14 3 -3 0 -5
-6 -5 -7 0 -12 -5 -12 -11 0 -5 5 -7 11 -3 6 4 26 7 43 8 17 1 37 5 45 10 10
6 12 6 7 -2 -5 -8 1 -12 14 -12 14 0 19 4 14 13 -5 8 -2 7 9 -2 10 -8 20 -11
24 -7 3 3 18 -1 32 -11 25 -16 25 -16 11 2 -14 17 -13 18 4 12 10 -4 24 -3 31
3 10 8 15 8 21 -1 5 -8 3 -9 -6 -4 -9 5 -11 4 -6 -3 5 -8 13 -9 25 -2 12 6 22
5 31 -3 10 -10 12 -9 7 5 -4 12 -2 15 8 11 8 -3 12 -9 9 -14 -3 -5 6 -5 19 0
14 6 28 7 31 4 3 -3 12 0 20 6 11 9 16 9 22 0 5 -8 3 -9 -6 -4 -9 5 -11 4 -6
-3 5 -8 13 -9 25 -2 12 6 22 5 31 -3 10 -10 12 -9 7 5 -4 12 -2 15 8 11 8 -3
13 -8 11 -12 -2 -3 9 -6 24 -6 15 0 26 3 24 6 -5 9 27 21 34 14 3 -3 0 -5 -6
-5 -7 0 -12 -5 -12 -10 0 -7 6 -7 19 -1 10 6 21 8 24 4 4 -3 15 0 24 8 17 13
17 13 4 -4 -13 -16 -13 -20 0 -28 12 -7 12 -9 -1 -9 -13 0 -13 -1 0 -10 13 -9
13 -10 0 -10 -13 0 -13 -1 0 -10 13 -9 13 -10 0 -10 -12 0 -12 -2 -1 -9 9 -6
10 -10 2 -16 -9 -5 -9 -10 -1 -20 8 -10 8 -19 0 -34 -8 -16 -8 -21 1 -21 8 0
7 -5 -2 -17 -11 -13 -12 -17 -1 -21 10 -3 10 -9 -3 -28 -9 -15 -11 -23 -4 -22
6 2 14 -3 17 -11 3 -8 0 -11 -7 -7 -6 4 -11 2 -11 -3 0 -6 5 -11 11 -11 7 0 4
-11 -6 -26 -9 -15 -12 -24 -7 -20 6 3 13 2 16 -3 4 -5 2 -13 -4 -16 -8 -5 -7
-12 2 -23 10 -12 10 -14 1 -8 -7 4 -13 2 -13 -3 0 -6 5 -11 11 -11 8 0 8 -4 0
-13 -7 -10 -7 -17 0 -24 8 -8 8 -17 0 -32 -9 -16 -9 -21 0 -21 8 0 7 -5 -2
-17 -11 -13 -12 -17 -1 -21 10 -3 10 -9 -3 -28 -9 -15 -11 -23 -4 -22 6 2 14
-3 17 -11 3 -8 0 -11 -7 -7 -6 4 -11 2 -11 -3 0 -6 5 -11 11 -11 7 0 4 -11 -6
-26 -9 -15 -12 -24 -7 -20 6 3 13 2 16 -3 4 -5 2 -13 -4 -16 -8 -5 -7 -12 2
-23 10 -12 10 -14 1 -8 -7 4 -13 2 -13 -3 0 -6 5 -11 11 -11 8 0 8 -4 0 -13
-7 -10 -7 -17 0 -24 8 -8 8 -17 0 -32 -9 -16 -9 -21 0 -21 8 0 7 -5 -2 -17
-11 -13 -12 -17 -1 -21 10 -3 10 -9 -3 -28 -9 -15 -11 -23 -4 -22 6 2 14 -3
17 -11 3 -8 0 -11 -7 -7 -6 4 -11 2 -11 -3 0 -6 5 -11 11 -11 7 0 4 -11 -6
-26 -9 -15 -12 -24 -7 -20 6 3 13 2 16 -3 4 -5 2 -13 -4 -16 -8 -5 -7 -12 2
-23 10 -12 10 -14 1 -8 -7 4 -13 2 -13 -3 0 -6 5 -11 11 -11 8 0 8 -4 0 -13
-7 -10 -7 -17 0 -24 8 -8 8 -17 0 -32 -9 -16 -9 -21 0 -21 8 0 7 -5 -2 -17
-11 -13 -12 -17 -1 -21 10 -3 10 -9 -3 -28 -9 -15 -11 -23 -4 -22 6 2 14 -3
17 -11 3 -8 0 -11 -7 -7 -6 4 -11 2 -11 -3 0 -6 5 -11 11 -11 7 0 4 -11 -6
-26 -9 -15 -12 -24 -7 -20 6 3 13 2 16 -3 4 -5 2 -13 -4 -16 -8 -5 -7 -12 2
-23 10 -12 10 -14 1 -8 -7 4 -13 2 -13 -3 0 -6 5 -11 11 -11 8 0 8 -4 0 -13
-7 -10 -7 -17 0 -24 8 -8 8 -17 0 -32 -9 -16 -9 -21 0 -21 8 0 7 -5 -2 -17
-11 -13 -12 -17 -1 -21 10 -3 10 -9 -3 -28 -9 -15 -11 -23 -4 -22 6 2 14 -3
17 -11 3 -8 0 -11 -7 -7 -6 4 -11 2 -11 -3 0 -6 5 -11 11 -11 7 0 4 -11 -6
-26 -9 -15 -12 -24 -7 -20 6 3 13 2 16 -3 4 -5 2 -13 -4 -16 -8 -5 -7 -12 2
-23 10 -12 10 -14 1 -8 -7 4 -13 2 -13 -3 0 -6 5 -11 11 -11 8 0 8 -4 0 -13
-7 -10 -7 -17 0 -24 8 -8 8 -17 0 -32 -9 -16 -9 -21 0 -21 8 0 7 -5 -2 -17
-11 -13 -12 -17 -1 -21 10 -3 10 -9 -3 -28 -8 -13 -12 -24 -8 -23 22 4 24 -3
7 -23 -10 -12 -14 -18 -7 -15 6 4 14 3 18 -3 3 -5 0 -10 -7 -10 -9 0 -9 -3 2
-10 13 -9 13 -10 0 -10 -9 0 -11 -3 -5 -8 17 -12 16 -32 -2 -25 -12 5 -14 3
-8 -8 7 -11 5 -11 -10 1 -11 9 -16 10 -11 2 4 -6 3 -12 -3 -12 -5 0 -11 6 -14
13 -3 9 -7 9 -20 -2 -13 -10 -17 -10 -17 -1 0 10 -3 10 -15 0 -11 -9 -15 -9
-15 -1 0 9 -5 9 -21 1 -14 -8 -24 -8 -33 -1 -9 7 -16 7 -24 -1 -9 -9 -12 -9
-12 0 0 7 -5 12 -11 12 -5 0 -8 -4 -5 -8 3 -5 -1 -9 -9 -9 -8 0 -12 5 -8 10 3
5 -4 4 -16 -2 -14 -8 -21 -8 -21 -1 0 7 -6 7 -21 0 -14 -8 -24 -8 -33 -1 -9 7
-16 7 -24 -1 -9 -9 -12 -9 -12 0 0 7 -5 12 -11 12 -5 0 -8 -4 -5 -8 6 -10 -60
-10 -70 0 -4 4 -13 3 -21 -3 -10 -9 -13 -8 -13 1 0 10 -3 10 -15 0 -12 -10
-18 -10 -29 -1 -11 9 -16 9 -21 0 -6 -8 -10 -7 -16 2 -7 11 -9 11 -9 1 0 -7
-5 -10 -10 -7 -6 4 -7 11 -4 17 4 5 -5 3 -19 -6 -19 -13 -26 -14 -29 -4 -4 11
-8 10 -21 -1 -12 -9 -17 -10 -17 -2 0 9 -5 9 -21 1 -14 -8 -24 -8 -33 -1 -9 7
-16 7 -24 -1 -9 -9 -12 -9 -12 0 0 7 -5 12 -11 12 -5 0 -7 -6 -3 -12 6 -10 4
-10 -8 0 -11 9 -18 10 -23 2 -3 -6 -11 -8 -16 -4 -5 3 -6 10 -3 16 4 5 -5 2
-20 -7 -15 -10 -26 -13 -26 -6 0 6 -5 11 -11 11 -5 0 -8 -4 -5 -8 2 -4 -4 -8
-14 -9 -11 -1 -22 3 -26 8 -4 6 -11 6 -20 -2 -11 -9 -14 -9 -14 1 0 10 -3 10
-15 0 -11 -9 -19 -10 -28 -1 -10 8 -17 7 -25 -1 -9 -9 -12 -9 -12 1 0 11 -3
11 -15 1 -11 -9 -15 -9 -15 -1 0 9 -5 9 -21 1 -14 -8 -24 -8 -33 -1 -9 7 -16
7 -24 -1 -9 -9 -12 -9 -12 0 0 7 -5 12 -11 12 -5 0 -8 -4 -5 -8 3 -5 -1 -9 -9
-9 -8 0 -12 5 -8 10 3 5 -4 4 -16 -2 -14 -8 -21 -8 -21 -1 0 7 -6 7 -21 0 -14
-8 -24 -8 -33 -1 -9 7 -16 7 -24 -1 -9 -9 -12 -9 -12 0 0 7 -5 12 -11 12 -5 0
-8 -4 -5 -8 6 -10 -60 -10 -70 0 -4 4 -13 3 -21 -3 -10 -9 -13 -8 -13 1 0 10
-3 10 -15 0 -12 -10 -18 -10 -29 -1 -11 9 -16 9 -21 0 -6 -8 -10 -7 -16 2 -7
11 -9 11 -9 1 0 -7 -5 -10 -10 -7 -6 4 -7 11 -4 17 4 5 -5 3 -19 -6 -19 -13
-26 -14 -29 -4 -4 11 -8 10 -21 -1 -12 -9 -17 -10 -17 -2 0 9 -5 9 -21 1 -14
-8 -24 -8 -33 -1 -9 7 -16 7 -24 -1 -9 -9 -12 -9 -12 0 0 7 -5 12 -11 12 -5 0
-7 -6 -3 -12 6 -10 4 -10 -8 0 -11 9 -18 10 -23 2 -3 -6 -11 -8 -16 -4 -5 3
-6 10 -3 16 4 5 -5 2 -20 -7 -15 -10 -26 -13 -26 -6 0 6 -5 11 -11 11 -5 0 -8
-4 -5 -8 2 -4 -13 -8 -35 -8 -21 0 -39 4 -39 10 0 6 -5 5 -12 -2 -7 -7 -17
-12 -23 -12 -5 0 -3 5 5 10 13 8 13 10 -2 10 -12 0 -15 5 -11 17 5 12 3 14 -8
9 -8 -4 -6 -1 4 7 15 12 16 19 8 36 -14 25 -14 34 0 25 8 -5 8 -1 0 13 -6 11
-8 23 -4 26 3 4 0 14 -8 24 -9 11 -10 14 -1 9 8 -5 12 0 12 14 0 13 -4 19 -12
14 -8 -5 -8 -3 -2 7 5 8 9 28 10 45 1 17 4 37 8 43 4 6 0 11 -9 11 -9 0 -13 5
-10 10 4 6 10 8 15 5 9 -6 5 34 -5 43 -2 3 1 12 8 20 8 10 8 13 1 9 -7 -4 -14
0 -17 8 -4 8 -1 12 6 9 7 -2 12 5 12 20 0 13 -3 22 -6 20 -4 -2 -9 3 -12 11
-4 10 -1 12 11 8 14 -5 15 -3 5 7 -8 9 -9 19 -3 31 7 12 6 20 -2 25 -7 5 -8 3
-3 -6 5 -9 4 -11 -4 -6 -9 6 -9 11 0 22 6 8 9 17 6 20 -3 3 -2 17 4 31 5 13 5
22 0 19 -5 -3 -11 1 -14 9 -4 10 -1 12 11 8 14 -5 15 -3 5 7 -8 9 -9 19 -3 31
7 12 6 20 -2 25 -7 5 -8 3 -3 -6 5 -9 4 -11 -4 -6 -7 5 -9 12 -3 19 13 19 14
69 0 61 -7 -5 -8 -3 -2 7 5 8 9 29 10 47 1 18 4 35 8 39 3 3 -2 12 -12 20 -9
8 -11 12 -4 8 11 -6 17 8 12 30 -1 6 -3 17 -3 25 0 8 -5 21 -11 29 -8 11 -8
13 2 7 8 -5 12 0 12 14 0 13 -4 19 -12 14 -8 -5 -8 -3 -2 7 5 8 9 28 10 45 1
17 4 37 8 43 4 6 0 11 -9 11 -9 0 -13 5 -10 10 4 6 10 8 15 5 9 -6 5 34 -5 43
-2 3 1 12 8 20 8 10 8 13 1 9 -12 -7 -29 21 -19 31 3 3 5 0 5 -6 0 -7 4 -12
10 -12 6 0 6 9 -1 26 -5 15 -7 35 -4 45 4 11 5 19 3 19 -2 0 -18 4 -36 9 -20
6 -30 6 -27 0 4 -5 1 -9 -4 -9 -6 0 -11 5 -11 12 0 6 -7 3 -16 -8 -8 -10 -13
-13 -9 -7 4 9 -2 13 -17 13 -13 0 -30 0 -38 1 -8 1 -26 -1 -39 -5 -16 -6 -21
-5 -17 3 5 8 0 8 -17 2 -14 -6 -27 -8 -30 -5 -9 9 -47 13 -42 3 4 -5 1 -9 -4
-9 -6 0 -11 6 -12 13 0 6 -4 3 -9 -8 -5 -11 -9 -14 -9 -7 -1 6 -7 12 -14 12
-17 0 -18 -30 -3 -49 8 -11 8 -13 -2 -7 -17 10 -17 -55 1 -73 6 -8 7 -11 1 -8
-7 4 -10 -229 -10 -763 l0 -768 37 1 c24 1 35 5 31 11 -3 7 0 7 9 0 10 -8 365
-11 1315 -11 l1301 0 0 1346 0 1347 -798 0 c-559 0 -796 -3 -791 -10 4 -7 1
-7 -9 0 -17 14 -43 14 -61 1z"/>
<path d="M237 2683 c-4 -3 -17 -7 -29 -7 -13 -1 -28 -5 -35 -9 -6 -4 -14 -3
-18 3 -4 7 -13 6 -27 -1 -11 -6 -18 -7 -14 -1 7 11 -44 9 -64 -3 -8 -5 -11 -4
-7 2 3 5 0 10 -7 10 -13 0 -15 -34 -3 -54 4 -6 3 -14 -2 -17 -5 -4 -8 -14 -6
-24 1 -9 -2 -26 -8 -37 -9 -18 -9 -19 8 -5 17 14 17 14 7 -7 -8 -15 -9 -24 -2
-28 7 -4 7 -12 2 -18 -4 -7 -8 -19 -7 -27 1 -8 -3 -24 -8 -35 -10 -18 -9 -19
8 -5 17 14 17 14 7 -7 -8 -15 -9 -24 -2 -28 7 -4 7 -12 2 -18 -4 -7 -8 -19 -7
-27 1 -8 -3 -24 -8 -35 -10 -18 -9 -19 8 -5 17 14 17 14 7 -7 -8 -15 -9 -24
-2 -28 7 -4 7 -12 2 -18 -4 -7 -8 -19 -7 -27 1 -8 -3 -24 -8 -35 -10 -18 -9
-19 8 -5 17 14 17 14 7 -7 -8 -15 -9 -24 -2 -28 7 -4 7 -12 2 -18 -4 -7 -8
-19 -7 -27 1 -8 -3 -24 -8 -35 -10 -18 -9 -19 8 -5 17 14 17 14 7 -7 -9 -16
-9 -24 -1 -29 8 -5 7 -9 -2 -14 -10 -7 -9 -11 2 -22 15 -15 47 -17 66 -5 6 4
14 4 17 -1 6 -10 62 -9 72 1 4 4 14 2 21 -5 9 -7 17 -8 21 -2 6 8 35 10 52 4
27 -9 49 -6 70 11 14 12 20 18 13 15 -6 -4 -14 -2 -18 4 -3 5 -1 10 5 10 8 0
7 6 -1 21 -8 15 -8 19 0 15 6 -4 11 0 11 9 0 9 -3 14 -7 12 -5 -3 -8 26 -8 64
0 38 4 69 9 69 5 0 3 7 -4 15 -9 10 -9 15 -1 15 6 0 11 5 11 11 0 5 -3 8 -7 6
-5 -3 -8 12 -8 34 0 25 5 39 13 39 8 0 10 5 6 12 -5 8 -2 9 9 5 10 -4 17 -1
17 6 0 8 4 6 10 -3 5 -8 10 -10 10 -5 0 6 30 10 69 10 38 0 67 -3 65 -6 -2 -4
3 -9 11 -13 8 -3 19 3 24 12 6 9 11 11 11 5 0 -9 7 -10 26 -2 24 8 25 8 14 -6
-11 -13 -10 -14 4 -9 9 3 16 9 16 13 0 4 20 6 44 4 38 -4 46 -1 56 18 9 16 9
20 1 14 -8 -5 -10 1 -5 19 4 17 2 26 -6 26 -6 0 -8 5 -5 10 4 6 11 7 17 4 6
-4 4 3 -5 16 -11 16 -13 29 -7 45 6 15 4 27 -3 35 -9 10 -9 11 1 6 16 -9 16
16 0 33 -9 10 -9 12 -1 7 8 -4 11 2 9 21 -2 16 -5 30 -6 33 -3 7 -7 22 -8 38
-2 9 -8 10 -19 4 -10 -4 -25 -8 -33 -7 -8 1 -20 -3 -27 -7 -6 -5 -14 -5 -18 2
-4 7 -13 6 -28 -2 -21 -10 -21 -10 -7 7 14 17 13 18 -5 8 -11 -5 -27 -9 -35
-8 -8 1 -20 -3 -27 -7 -6 -5 -14 -5 -18 2 -4 7 -13 6 -28 -2 -21 -10 -21 -10
-7 7 14 17 13 18 -5 8 -11 -5 -27 -9 -35 -8 -8 1 -20 -3 -27 -7 -6 -5 -14 -5
-18 2 -4 7 -13 6 -28 -2 -21 -10 -21 -10 -7 7 14 17 13 18 -5 8 -11 -5 -27 -9
-35 -8 -8 1 -20 -3 -27 -7 -6 -5 -14 -5 -18 2 -4 7 -13 6 -28 -2 -20 -10 -21
-10 -8 5 13 16 11 24 -2 10z"/>
<path d="M435 2340 c-3 -5 -1 -10 4 -10 6 0 11 5 11 10 0 6 -2 10 -4 10 -3 0
-8 -4 -11 -10z"/>
<path d="M675 2340 c-3 -5 -1 -10 4 -10 6 0 11 5 11 10 0 6 -2 10 -4 10 -3 0
-8 -4 -11 -10z"/>
<path d="M355 2180 c-3 -5 -1 -10 4 -10 6 0 11 5 11 10 0 6 -2 10 -4 10 -3 0
-8 -4 -11 -10z"/>
</g>
</svg>
